<?xml version="1.0" standalone="no"?>
<!DOCTYPE svg PUBLIC "-//W3C//DTD SVG 1.1//EN" "http://www.w3.org/Graphics/SVG/1.1/DTD/svg11.dtd" >
<svg xmlns="http://www.w3.org/2000/svg">
<metadata>Generated by IcoMoon</metadata>
<defs>
<font id="spinupvpnwebsite" horiz-adv-x="1024">
<font-face units-per-em="1024" ascent="960" descent="-64" />
<missing-glyph horiz-adv-x="1024" />
<glyph unicode="&#x20;" horiz-adv-x="512" d="" />
<glyph unicode="&#xe900;" glyph-name="account" d="M512.003 417.745c126.795 0 229.594 120.316 229.594 268.731 0 205.812-102.794 268.729-229.594 268.729-126.805 0-229.594-62.917-229.594-268.729 0.003-148.415 102.792-268.731 229.594-268.731zM1018.997 22.209l-115.836 260.935c-5.296 11.94-14.606 21.843-26.19 27.875l-179.766 93.582c-3.964 2.057-8.764 1.659-12.328-1.039-50.844-38.456-110.625-58.783-172.874-58.783-62.259 0-122.035 20.327-172.879 58.783-3.574 2.698-8.374 3.096-12.338 1.039l-179.754-93.582c-11.59-6.031-20.887-15.929-26.19-27.875l-115.833-260.935c-7.986-17.989-6.349-38.571 4.38-55.071 10.724-16.5 28.873-26.343 48.552-26.343h908.119c19.678 0 37.833 9.85 48.557 26.346s12.368 37.087 4.382 55.069z" />
<glyph unicode="&#xe901;" glyph-name="account_hover" d="M512.003 417.745c126.795 0 229.594 120.316 229.594 268.731 0 205.812-102.794 268.729-229.594 268.729-126.805 0-229.594-62.917-229.594-268.729 0.003-148.415 102.792-268.731 229.594-268.731zM1018.997 22.209l-115.836 260.935c-5.296 11.94-14.606 21.843-26.19 27.875l-179.766 93.582c-3.964 2.057-8.764 1.659-12.328-1.039-50.844-38.456-110.625-58.783-172.874-58.783-62.259 0-122.035 20.327-172.879 58.783-3.574 2.698-8.374 3.096-12.338 1.039l-179.754-93.582c-11.59-6.031-20.887-15.929-26.19-27.875l-115.833-260.935c-7.986-17.989-6.349-38.571 4.38-55.071 10.724-16.5 28.873-26.343 48.552-26.343h908.119c19.678 0 37.833 9.85 48.557 26.346s12.368 37.087 4.382 55.069z" />
<glyph unicode="&#xe902;" glyph-name="billing_address" horiz-adv-x="1820" d="M1230.207 960h-671.969l2.688-1.28c-73.149-6.4-130.682-67.068-130.682-141.817v-240.886h255.988v-607.972c0-10.623 5.312-20.543 14.080-26.494s19.968-7.104 29.823-3.2l148.089 59.261 148.089-59.261c7.616-3.136 16.127-3.136 23.743 0l148.154 59.261 148.089-59.261c3.84-1.536 7.935-2.304 11.904-2.304 6.336 0 12.543 1.856 17.918 5.504 8.831 5.952 14.080 15.871 14.080 26.494v831.962c-0.001 88.188-71.742 159.992-159.994 159.992zM686.233 768.009v-127.994h-191.991v176.888c0 43.582 35.519 79.1 79.1 79.1h33.791c43.583 0 79.1-35.518 79.1-79.1v-48.894zM1230.207 192.036h-255.988c-17.664 0-31.999 14.335-31.999 31.998s14.335 31.999 31.999 31.999h255.988c17.663 0 31.998-14.336 31.998-31.999s-14.335-31.998-31.998-31.998zM1230.207 320.029h-255.988c-17.664 0-31.999 14.335-31.999 31.999s14.335 31.998 31.999 31.998h255.988c17.663 0 31.998-14.335 31.998-31.998s-14.335-31.999-31.998-31.999zM1230.207 448.024h-383.982c-17.663 0-31.998 14.335-31.998 31.998s14.335 31.999 31.998 31.999h383.982c17.663 0 31.998-14.336 31.998-31.999s-14.335-31.998-31.998-31.998zM1230.207 704.012h-383.982c-17.663 0-31.998 14.335-31.998 31.999s14.335 31.998 31.998 31.998h383.982c17.663 0 31.998-14.335 31.998-31.998s-14.335-31.999-31.998-31.999z" />
<glyph unicode="&#xe903;" glyph-name="billing_address_hover" horiz-adv-x="1820" d="M1230.207 960h-671.969l2.688-1.28c-73.149-6.4-130.682-67.068-130.682-141.817v-240.886h255.988v-607.972c0-10.623 5.312-20.543 14.080-26.494s19.968-7.104 29.823-3.2l148.089 59.261 148.089-59.261c7.616-3.136 16.127-3.136 23.743 0l148.154 59.261 148.089-59.261c3.84-1.536 7.935-2.304 11.904-2.304 6.336 0 12.543 1.856 17.918 5.504 8.831 5.952 14.080 15.871 14.080 26.494v831.962c-0.001 88.188-71.742 159.992-159.994 159.992zM686.233 768.009v-127.994h-191.991v176.888c0 43.582 35.519 79.1 79.1 79.1h33.791c43.583 0 79.1-35.518 79.1-79.1v-48.894zM1230.207 192.036h-255.988c-17.664 0-31.999 14.335-31.999 31.998s14.335 31.999 31.999 31.999h255.988c17.663 0 31.998-14.336 31.998-31.999s-14.335-31.998-31.998-31.998zM1230.207 320.029h-255.988c-17.664 0-31.999 14.335-31.999 31.999s14.335 31.998 31.999 31.998h255.988c17.663 0 31.998-14.335 31.998-31.998s-14.335-31.999-31.998-31.999zM1230.207 448.024h-383.982c-17.663 0-31.998 14.335-31.998 31.998s14.335 31.999 31.998 31.999h383.982c17.663 0 31.998-14.336 31.998-31.999s-14.335-31.998-31.998-31.998zM1230.207 704.012h-383.982c-17.663 0-31.998 14.335-31.998 31.999s14.335 31.998 31.998 31.998h383.982c17.663 0 31.998-14.335 31.998-31.998s-14.335-31.999-31.998-31.999z" />
<glyph unicode="&#xe904;" glyph-name="change_password" horiz-adv-x="1820" d="M1272.888 576h-64v85.334c0 164.686-133.978 298.666-298.666 298.666s-298.666-133.98-298.666-298.666v-85.334h-64c-11.793 0-21.334-9.541-21.334-21.334v-533.333c0-47.062 38.27-85.332 85.334-85.332h597.333c47.062 0 85.332 38.27 85.332 85.334v533.331c0 11.793-9.541 21.334-21.334 21.334zM974.098 130.353c0.666-6.020-1.271-12.062-5.312-16.583s-9.834-7.104-15.897-7.104h-85.333c-6.062 0-11.855 2.585-15.897 7.104s-5.98 10.562-5.312 16.583l13.458 121.021c-21.855 15.897-34.917 41.042-34.917 68.626 0 47.062 38.27 85.334 85.334 85.334s85.334-38.27 85.334-85.334c0-27.584-13.062-52.729-34.916-68.626l13.457-121.021zM1080.888 576h-341.331v85.334c0 94.104 76.562 170.666 170.666 170.666s170.666-76.562 170.666-170.666v-85.334z" />
<glyph unicode="&#xe905;" glyph-name="change_password_hover" horiz-adv-x="1820" d="M1272.888 576h-64v85.334c0 164.686-133.978 298.666-298.666 298.666s-298.666-133.98-298.666-298.666v-85.334h-64c-11.793 0-21.334-9.541-21.334-21.334v-533.333c0-47.062 38.27-85.332 85.334-85.332h597.333c47.062 0 85.332 38.27 85.332 85.334v533.331c0 11.793-9.541 21.334-21.334 21.334zM974.098 130.353c0.666-6.020-1.271-12.062-5.312-16.583s-9.834-7.104-15.897-7.104h-85.333c-6.062 0-11.855 2.585-15.897 7.104s-5.98 10.562-5.312 16.583l13.458 121.021c-21.855 15.897-34.917 41.042-34.917 68.626 0 47.062 38.27 85.334 85.334 85.334s85.334-38.27 85.334-85.334c0-27.584-13.062-52.729-34.916-68.626l13.457-121.021zM1080.888 576h-341.331v85.334c0 94.104 76.562 170.666 170.666 170.666s170.666-76.562 170.666-170.666v-85.334z" />
<glyph unicode="&#xe906;" glyph-name="downloads" horiz-adv-x="1820" d="M1422.087 382.882c-0.733 7.658-3.577 15.022-8.272 21.799l-209.4 302.546c-8.679 12.546-22.994 20.047-38.263 20.047h-139.599c-12.86 0-23.267-10.41-23.267-23.273v-46.545c0-12.864 10.408-23.273 23.267-23.273h115.198l161.089-232.729h-113.419c-51.305 0-93.065-41.749-93.065-93.091 0-25.659-20.858-46.546-46.534-46.546h-279.197c-25.676 0-46.534 20.887-46.534 46.546 0 51.339-41.762 93.091-93.065 93.091h-113.42l161.088 232.729h115.198c12.86 0 23.267 10.41 23.267 23.273v46.545c0 12.864-10.408 23.273-23.267 23.273h-139.599c-15.269 0-29.583-7.501-38.263-20.047l-209.4-302.546c-4.692-6.775-7.538-14.558-8.272-22.216-0.302-1.501 0-353.376 0-353.376 0-51.34 41.762-93.092 93.065-93.092h837.598c51.305 0 93.065 41.749 93.065 93.092 0.001 0.001 0.307 352.294 0.001 353.793zM754.17 567.18l-32.894-32.905c-9.090-9.088-9.090-23.824 0-32.913l156.045-156.092c9.090-9.092 20.994-13.637 32.9-13.637s23.812 4.545 32.899 13.637l156.046 156.092c9.090 9.087 9.090 23.823 0 32.913l-32.895 32.905c-9.090 9.088-23.817 9.088-32.906 0l-76.612-76.636v446.182c0.002 12.855-10.414 23.273-23.262 23.273h-46.534c-12.849 0-23.268-10.418-23.268-23.273v-446.182l-76.612 76.636c-9.089 9.090-23.818 9.090-32.906 0z" />
<glyph unicode="&#xe907;" glyph-name="downloads_hover" horiz-adv-x="1820" d="M1422.087 382.882c-0.733 7.658-3.577 15.022-8.272 21.799l-209.4 302.546c-8.679 12.546-22.994 20.047-38.263 20.047h-139.599c-12.86 0-23.267-10.41-23.267-23.273v-46.545c0-12.864 10.408-23.273 23.267-23.273h115.198l161.089-232.729h-113.419c-51.305 0-93.065-41.749-93.065-93.091 0-25.659-20.858-46.546-46.534-46.546h-279.197c-25.676 0-46.534 20.887-46.534 46.546 0 51.339-41.762 93.091-93.065 93.091h-113.42l161.088 232.729h115.198c12.86 0 23.267 10.41 23.267 23.273v46.545c0 12.864-10.408 23.273-23.267 23.273h-139.599c-15.269 0-29.583-7.501-38.263-20.047l-209.4-302.546c-4.692-6.775-7.538-14.558-8.272-22.216-0.302-1.501 0-353.376 0-353.376 0-51.34 41.762-93.092 93.065-93.092h837.598c51.305 0 93.065 41.749 93.065 93.092 0.001 0.001 0.307 352.294 0.001 353.793zM754.17 567.18l-32.894-32.905c-9.090-9.088-9.090-23.824 0-32.913l156.045-156.092c9.090-9.092 20.994-13.637 32.9-13.637s23.812 4.545 32.899 13.637l156.046 156.092c9.090 9.087 9.090 23.823 0 32.913l-32.895 32.905c-9.090 9.088-23.817 9.088-32.906 0l-76.612-76.636v446.182c0.002 12.855-10.414 23.273-23.262 23.273h-46.534c-12.849 0-23.268-10.418-23.268-23.273v-446.182l-76.612 76.636c-9.089 9.090-23.818 9.090-32.906 0z" />
<glyph unicode="&#xe908;" glyph-name="my_orders" d="M307.2 140.8c-56.32 0-102.4-46.080-102.4-102.4s46.080-102.4 102.4-102.4 102.4 46.080 102.4 102.4-46.080 102.4-102.4 102.4zM0 960v-102.4h102.4l184.32-389.12-71.68-122.88c-5.12-15.36-10.24-35.84-10.24-51.2 0-56.32 46.080-102.4 102.4-102.4h614.4v102.4h-593.92c-5.12 0-10.24 5.12-10.24 10.24v5.124l46.080 87.040h378.88c40.96 0 71.68 20.48 87.040 51.2l184.32 332.796c10.24 10.24 10.24 15.36 10.24 25.6 0 30.72-20.48 51.2-51.2 51.2h-757.76l-46.080 102.4h-168.96zM819.2 140.8c-56.32 0-102.4-46.080-102.4-102.4s46.080-102.4 102.4-102.4 102.4 46.080 102.4 102.4-46.080 102.4-102.4 102.4z" />
<glyph unicode="&#xe909;" glyph-name="my_orders_hover" d="M307.2 140.8c-56.32 0-102.4-46.080-102.4-102.4s46.080-102.4 102.4-102.4 102.4 46.080 102.4 102.4-46.080 102.4-102.4 102.4zM0 960v-102.4h102.4l184.32-389.12-71.68-122.88c-5.12-15.36-10.24-35.84-10.24-51.2 0-56.32 46.080-102.4 102.4-102.4h614.4v102.4h-593.92c-5.12 0-10.24 5.12-10.24 10.24v5.124l46.080 87.040h378.88c40.96 0 71.68 20.48 87.040 51.2l184.32 332.796c10.24 10.24 10.24 15.36 10.24 25.6 0 30.72-20.48 51.2-51.2 51.2h-757.76l-46.080 102.4h-168.96zM819.2 140.8c-56.32 0-102.4-46.080-102.4-102.4s46.080-102.4 102.4-102.4 102.4 46.080 102.4 102.4-46.080 102.4-102.4 102.4z" />
<glyph unicode="&#xe90a;" glyph-name="power_off" d="M53.064 352.788c-15.053 161.997 54.149 308.736 168.899 401.961 44.728 36.372 111.616 5.222 111.616-52.265v0c0-21.115-10.035-40.55-26.337-53.719-81.326-66.253-130.232-170.783-118.313-286.167 15.462-150.282 135.864-271.933 285.962-288.686 195.85-21.934 362.25 131.482 362.25 322.97 0 101.581-47.043 192.512-120.402 252.088-16.302 13.169-26.112 32.604-26.112 53.514v0c0 56.852 65.843 89.047 110.162 53.514 104.919-84.664 172.237-214.057 172.237-359.117 0-265.257-225.341-479.089-494.776-459.633-222.843 15.667-404.5 193.106-425.185 415.539zM511.877 960c-37.622 0-67.932-30.515-67.932-67.932v-312.914c0-37.622 30.515-67.932 67.932-67.932s67.932 30.515 67.932 67.932v312.914c0 37.417-30.31 67.932-67.932 67.932z" />
<glyph unicode="&#xe90b;" glyph-name="privacy" horiz-adv-x="1820" d="M910.235 640.006c-35.282 0-64.001-28.718-64.001-64.001v-64h128.002v64c0 35.282-28.718 64.001-64.001 64.001zM1321.894 953.71c-22.223 10.656-48.533 7.594-67.786-7.844-79.965-64.283-223.903-64.25-303.749-0.032-23.438 18.877-56.812 18.844-80.251 0.032-79.933-64.281-223.934-64.248-303.748-0.029-19.222 15.468-45.62 18.532-67.755 7.876-22.21-10.626-36.365-33.094-36.365-57.72l-0.032-512.005c0-200.595 160.814-367.112 430.152-445.457 5.843-1.688 11.843-2.532 17.877-2.532 6.028 0 12.032 0.844 17.876 2.532 269.342 78.345 430.126 244.831 430.126 445.457v512.004c-0.001 24.626-14.128 47.095-36.345 57.719zM1102.235 320.003c0-35.36-28.652-64-64-64h-256.002c-35.348 0-64.001 28.64-64.001 64v128.001c0 35.344 28.653 64.001 64.001 64.001v64c0 70.563 57.407 128.001 128.001 128.001s128.001-57.439 128.001-128.001v-64c35.348 0 64-28.657 64-64.001v-128.001zM910.235 416.004c-17.673 0-32-14.327-32-32 0-17.688 14.327-32 32-32s32 14.312 32 32c0 17.673-14.328 32-32 32z" />
<glyph unicode="&#xe90c;" glyph-name="privacy_hover" horiz-adv-x="1820" d="M910.235 640.006c-35.282 0-64.001-28.718-64.001-64.001v-64h128.002v64c0 35.282-28.718 64.001-64.001 64.001zM1321.894 953.71c-22.223 10.656-48.533 7.594-67.786-7.844-79.965-64.283-223.903-64.25-303.749-0.032-23.438 18.877-56.812 18.844-80.251 0.032-79.933-64.281-223.934-64.248-303.748-0.029-19.222 15.468-45.62 18.532-67.755 7.876-22.21-10.626-36.365-33.094-36.365-57.72l-0.032-512.005c0-200.595 160.814-367.112 430.152-445.457 5.843-1.688 11.843-2.532 17.877-2.532 6.028 0 12.032 0.844 17.876 2.532 269.342 78.345 430.126 244.831 430.126 445.457v512.004c-0.001 24.626-14.128 47.095-36.345 57.719zM1102.235 320.003c0-35.36-28.652-64-64-64h-256.002c-35.348 0-64.001 28.64-64.001 64v128.001c0 35.344 28.653 64.001 64.001 64.001v64c0 70.563 57.407 128.001 128.001 128.001s128.001-57.439 128.001-128.001v-64c35.348 0 64-28.657 64-64.001v-128.001zM910.235 416.004c-17.673 0-32-14.327-32-32 0-17.688 14.327-32 32-32s32 14.312 32 32c0 17.673-14.328 32-32 32z" />
<glyph unicode="&#xe90d;" d="M1024 448c0-282.77-229.23-512-512-512s-512 229.23-512 512c0 282.77 229.23 512 512 512s512-229.23 512-512z" />
<glyph unicode="&#xe90e;" d="M290.57 481.71l6.963 18.33c-4.26-4.936-6.963-11.244-6.963-18.33z" />
<glyph unicode="&#xe90f;" d="M725.094 501.637l8.335-19.927c0.020 7.782-3.154 14.868-8.335 19.927z" />
<glyph unicode="&#xe910;" d="M704.082 509.727c8.397 0 15.913-3.809 21.053-9.708l-0.901 2.314c0.328-0.266 0.614-0.43 0.901-0.717l-6.697 16.015-56.463 148.050c0 15.483-12.513 28.058-28.017 28.058h-245.248c-15.483 0-28.058-12.554-28.058-28.058l-56.381-148.050-6.717-16.015c0.287 0.307 0.614 0.471 0.901 0.717l-0.901-2.314c5.161 5.898 12.657 9.708 21.053 9.708h385.475zM452.69 669.266l16.015 8.786c3.666 1.618 8.561 0.881 10.895-1.72l30.638-33.956c2.212-2.54 1.413-5.96-2.478-7.7v-0.020l-17.981-6.615c-7.291-3.83-3.092-11.387 2.089-18.821l26.194-28.959c12.575-11.244 19.62-16.568 27.218-14.029l15.585 9.216c3.707 1.638 8.602 0.901 10.957-1.72l30.618-33.956c2.253-2.519 1.413-5.98-2.499-7.7v-0.020l-18.35-6.083c-11.858-4.157-59.167-5.509-111.165 53.78-50.156 57.119-27.116 83.743-17.736 89.518z" />
<glyph unicode="&#xe911;" d="M705.434 482.406h-386.826c-15.483 0-28.037-12.554-28.037-28.017v-81.818c0-15.483 12.554-28.037 28.037-28.037h172.851v-68.895h-24.904c-12.943 0-24.289-6.697-30.802-16.794h-140.718v-39.772h140.739c6.554-10.097 17.879-16.794 30.802-16.794h89.539c12.902 0 24.248 6.697 30.781 16.794h140.759v39.772h-140.759c-6.533 10.097-17.838 16.794-30.781 16.794h-24.924v68.895h174.203c15.483 0 28.037 12.554 28.037 28.037v81.818c0.020 15.442-12.534 28.017-27.996 28.017zM680.755 402.944h-77.107v21.012h77.107v-21.012z" />
<glyph unicode="&#xe912;" d="M1024 448c0-282.77-229.23-512-512-512s-512 229.23-512 512c0 282.77 229.23 512 512 512s512-229.23 512-512z" />
<glyph unicode="&#xe913;" d="M461.455 533.381l-26.255-26.235 27.156-27.156 26.194 26.194c7.455-4.608 15.688-8.049 24.453-10.097v-36.577h38.4v36.741c8.499 2.068 16.486 5.448 23.716 9.933l26.194-26.194 27.156 27.156-26.235 26.235c4.506 7.332 7.885 15.442 9.912 24.044h37.151v38.4h-37.233c-2.089 8.561-5.468 16.609-9.974 23.9l26.378 26.399-27.136 27.156-26.419-26.44c-7.188 4.403-15.094 7.741-23.491 9.81v37.11h-38.4v-36.946c-8.684-2.028-16.835-5.427-24.228-9.953l-26.44 26.419-27.156-27.156 26.399-26.378c-4.506-7.291-7.905-15.34-9.974-23.9h-37.581v-38.4h37.499c2.007-8.622 5.407-16.712 9.912-24.064zM495.739 601.805l10.772 10.772c7.188 5.059 15.913 8.049 25.354 8.049 23.040 0 42.004-17.736 43.991-40.264v-7.782c-1.987-22.528-20.931-40.264-43.991-40.264-24.351 0-44.155 19.804-44.155 44.155-0.020 9.4 2.949 18.166 8.028 25.334zM457.196 367.288c0-5.079 2.519-9.83 6.738-12.718 5.1-3.482 9.421-5.243 11.080-5.591 7.455-1.085 92.877-10.22 148.91-16.138l-4.035-38.175c-43.622 4.608-145.756 15.442-151.675 16.527-10.424 1.925-20.685 8.131-25.887 11.674-4.936 3.359-9.196 7.475-12.698 12.145l-0.184-0.184-92.14 90.419c-3.666 3.604-8.52 5.55-13.64 5.509s-9.933-2.089-13.517-5.755c-3.584-3.645-5.55-8.479-5.509-13.619s2.089-9.933 5.755-13.517l142.5-139.837c11.387-11.182 26.46-17.347 42.414-17.347h262.451v-38.441h-262.451c-26.071 0-50.688 10.056-69.304 28.324l-142.5 139.837c-10.998 10.793-17.101 25.19-17.265 40.571-0.143 15.38 5.714 29.901 16.486 40.878 10.772 10.998 25.17 17.101 40.571 17.265 15.36 0.143 29.901-5.714 40.899-16.486l61.030-59.904c9.093 16.835 26.89 28.324 47.35 28.324l132.813 0.041c0.963 0 1.905 0 2.867 0v0c46.776-0.573 91.648-15.278 129.7-42.496l19.804-14.193v-47.247l-42.189 30.208c-31.621 22.63-68.895 34.836-107.807 35.328-0.799 0-1.577 0-2.376 0l-132.833-0.041c-8.458 0-15.36-6.902-15.36-15.36z" />
<glyph unicode="&#xe914;" glyph-name="reboot" d="M560.968-61.112c205.414 22.999 370.033 187.208 393.482 392.622 30.74 268.575-178.012 497.213-439.706 500.142v120.484c0 6.697-8.376 10.24-14.029 6.062l-248.074-182.19c-4.198-3.133-4.198-9.196 0-12.349l248.074-182.19c5.652-4.198 14.029-0.43 14.029 6.062v120.279c183.869-2.929 331.141-159.396 318.587-346.419-10.67-160.85-141.844-291.389-302.674-301.629-170.496-10.875-315.453 110.858-341.381 271.933-4.813 29.901-30.945 51.651-61.071 51.651-37.437 0-66.724-33.26-60.867-70.308 36.352-229.417 248.259-401.551 493.629-374.149z" />
<glyph unicode="&#xe915;" d="M1024 448c0-282.77-229.23-512-512-512s-512 229.23-512 512c0 282.77 229.23 512 512 512s512-229.23 512-512z" />
<glyph unicode="&#xe916;" d="M788.828 225.997l-57.549 201.646c-2.273 8.008-9.585 13.517-17.9 13.517h-132.321c26.542 35.82 52.388 83.046 52.388 131.113 0 66.97-54.456 121.487-121.446 121.487-66.97 0-121.446-54.518-121.446-121.487 0-48.087 25.846-95.293 52.408-131.113h-132.321c-8.315 0-15.626-5.53-17.92-13.517l-57.549-201.646c-1.597-5.632-0.471-11.674 3.031-16.364 3.543-4.628 9.032-7.393 14.868-7.393h517.837c5.837 0 11.366 2.765 14.868 7.393 3.523 4.69 4.649 10.732 3.052 16.364zM512 656.507c46.408 0 84.193-37.786 84.193-84.234 0-62.321-58.184-127.98-84.193-154.194-26.030 26.214-84.193 91.873-84.193 154.194 0 46.449 37.765 84.234 84.193 84.234zM473.907 403.907c13.988-15.073 24.453-24.412 25.784-25.6 3.523-3.113 7.905-4.669 12.329-4.669 4.403 0 8.786 1.536 12.308 4.669 1.331 1.188 11.817 10.527 25.784 25.6h149.217l5.181-18.166-72.049-60.027-313.815 57.057 6.021 21.115h149.238zM376.955 239.493v94.802l218.194-39.67-66.15-55.132h-152.044zM308.388 346.788l31.334-5.693v-101.581h-61.932l30.597 107.274zM587.162 239.493l128.512 107.090 30.556-107.090h-159.068z" />
<glyph unicode="&#xe917;" d="M562.115 572.273c0 27.75-22.487 50.36-50.115 50.36s-50.115-22.61-50.115-50.36c0-27.791 22.487-50.381 50.115-50.381 27.648 0 50.115 22.589 50.115 50.381zM499.139 572.273c0 7.229 5.775 13.107 12.861 13.107s12.861-5.878 12.861-13.107c0-7.25-5.775-13.148-12.861-13.148s-12.861 5.898-12.861 13.148z" />
<glyph unicode="&#xe918;" glyph-name="reinstall" d="M116.49 412.16c-6.246 54.19-1.044 106.516 13.148 154.87 47.104 160.707 194.908 278.917 370.217 280.986v105.062c0 5.837 7.291 8.97 12.083 5.427l216.187-158.843c3.523-2.703 3.523-8.131 0-10.629l-215.962-158.843c-4.997-3.543-12.083-0.43-12.083 5.427v104.858c-115.282-1.884-213.668-72.97-255.98-173.425-16.056-37.949-24.187-79.831-21.893-123.822 3.133-60.457 25.846-116.101 61.706-161.137 19.19-23.982 14.582-59.003-10.22-77.148-23.552-17.306-56.484-12.493-74.629 10.424-44.421 55.439-74.015 122.982-82.575 196.792zM740.618 613.929c36.065-44.81 58.778-100.68 61.706-161.137 2.273-44.196-6.042-86.098-21.873-123.822-42.312-100.454-140.718-171.766-256-173.425v104.858c0 5.837-7.291 8.97-12.083 5.407l-216.166-158.843c-3.543-2.703-3.543-8.11 0-10.629l215.962-158.843c4.997-3.543 12.083-0.43 12.083 5.427v105.062c175.329 1.864 323.318 120.054 370.196 280.986 14.193 48.353 19.21 100.7 13.169 154.89-8.356 73.81-37.97 141.332-82.35 196.772-18.35 22.938-51.057 27.73-74.629 10.424-24.617-18.145-29.184-53.166-10.015-77.128z" />
<glyph unicode="&#xe919;" glyph-name="shipping_address" d="M35.93 328.329v435.675c0 24.21 19.625 43.836 43.836 43.836h435.451c24.211 0 43.835-19.627 43.835-43.836v-435.677c0-8.068-6.541-14.61-14.61-14.61h-493.899c-8.072-0.002-14.612 6.541-14.612 14.612zM387.571 179.076c0-50.214-40.707-90.92-90.918-90.92s-90.918 40.706-90.918 90.92 40.707 90.918 90.918 90.918c50.211 0 90.918-40.704 90.918-90.918zM342.11 179.076c0 25.106-20.353 45.459-45.459 45.459s-45.461-20.353-45.461-45.459 20.355-45.461 45.461-45.461 45.459 20.355 45.459 45.461zM218.345 269.996h-203.732c-8.070 0-14.612-6.542-14.612-14.612v-44.332c0-8.068 6.542-14.61 14.612-14.61h163.301c4.263 29.253 19.029 55.094 40.431 73.554zM863.269 179.076c0-50.214-40.706-90.92-90.918-90.92s-90.918 40.706-90.918 90.92 40.706 90.918 90.918 90.918c50.211 0.002 90.918-40.704 90.918-90.918zM817.811 179.076c0 25.106-20.353 45.459-45.461 45.459s-45.459-20.353-45.459-45.459 20.353-45.461 45.459-45.461c25.106 0 45.461 20.355 45.461 45.461zM1024 255.384v-44.332c0-8.068-6.542-14.61-14.61-14.61h-118.304c-8.461 58.032-58.403 102.78-118.732 102.78-60.339 0-110.284-44.75-118.746-102.78h-238.217c-4.265 29.251-19.029 55.095-40.431 73.556h225.872v417.949c0 16.14 13.084 29.224 29.224 29.224h137.947c38.842 0 75.145-19.294 96.878-51.484l88.929-131.716c13.044-19.32 20.015-42.099 20.015-65.412v-198.562h35.562c8.070 0 14.612-6.542 14.612-14.612zM875.768 530.598l-71.113 101.050c-2.737 3.889-7.195 6.203-11.952 6.203h-110.923c-8.067 0-14.61-6.542-14.61-14.612v-101.050c0-8.072 6.541-14.612 14.61-14.612h182.041c11.836 0 18.76 13.34 11.947 23.022z" />
<glyph unicode="&#xe91a;" glyph-name="shipping_address_hover" d="M35.93 328.329v435.675c0 24.21 19.625 43.836 43.836 43.836h435.451c24.211 0 43.835-19.627 43.835-43.836v-435.677c0-8.068-6.541-14.61-14.61-14.61h-493.899c-8.072-0.002-14.612 6.541-14.612 14.612zM387.571 179.076c0-50.214-40.707-90.92-90.918-90.92s-90.918 40.706-90.918 90.92 40.707 90.918 90.918 90.918c50.211 0 90.918-40.704 90.918-90.918zM342.11 179.076c0 25.106-20.353 45.459-45.459 45.459s-45.461-20.353-45.461-45.459 20.355-45.461 45.461-45.461 45.459 20.355 45.459 45.461zM218.345 269.996h-203.732c-8.070 0-14.612-6.542-14.612-14.612v-44.332c0-8.068 6.542-14.61 14.612-14.61h163.301c4.263 29.253 19.029 55.094 40.431 73.554zM863.269 179.076c0-50.214-40.706-90.92-90.918-90.92s-90.918 40.706-90.918 90.92 40.706 90.918 90.918 90.918c50.211 0.002 90.918-40.704 90.918-90.918zM817.811 179.076c0 25.106-20.353 45.459-45.461 45.459s-45.459-20.353-45.459-45.459 20.353-45.461 45.459-45.461c25.106 0 45.461 20.355 45.461 45.461zM1024 255.384v-44.332c0-8.068-6.542-14.61-14.61-14.61h-118.304c-8.461 58.032-58.403 102.78-118.732 102.78-60.339 0-110.284-44.75-118.746-102.78h-238.217c-4.265 29.251-19.029 55.095-40.431 73.556h225.872v417.949c0 16.14 13.084 29.224 29.224 29.224h137.947c38.842 0 75.145-19.294 96.878-51.484l88.929-131.716c13.044-19.32 20.015-42.099 20.015-65.412v-198.562h35.562c8.070 0 14.612-6.542 14.612-14.612zM875.768 530.598l-71.113 101.050c-2.737 3.889-7.195 6.203-11.952 6.203h-110.923c-8.067 0-14.61-6.542-14.61-14.612v-101.050c0-8.072 6.541-14.612 14.61-14.612h182.041c11.836 0 18.76 13.34 11.947 23.022z" />
<glyph unicode="&#xe91b;" d="M1024 448c0-282.77-229.23-512-512-512s-512 229.23-512 512c0 282.77 229.23 512 512 512s512-229.23 512-512z" />
<glyph unicode="&#xe91c;" d="M752.312 359.117c0 14.234-10.916 25.784-24.474 25.784-13.435-0.041-24.474-11.53-24.474-25.784v-53.35l-98.796 98.836c-9.564 9.585-25.047 9.585-34.591 0-9.564-9.564-9.564-25.068 0-34.611l98.324-98.304h-53.084c-14.479-0.020-26.112-10.977-26.112-24.474 0-13.517 11.633-24.433 26.112-24.433h111.002c14.438 0 26.071 10.916 26.153 24.433-0.082 0.389-0.123 0.655-0.164 1.004 0.041 0.471 0.164 0.963 0.164 1.434v109.466h-0.061z" />
<glyph unicode="&#xe91d;" d="M434.463 404.603l-98.755-98.836v53.35c0 14.234-11.039 25.743-24.515 25.784-13.517 0-24.453-11.53-24.453-25.784l-0.020-109.507c0-0.451 0.143-0.983 0.164-1.413-0.020-0.348-0.102-0.614-0.143-1.004 0.041-13.558 11.694-24.474 26.132-24.474h111.043c14.397 0 26.071 10.957 26.071 24.474 0 13.476-11.674 24.433-26.071 24.474h-53.125l98.324 98.284c9.523 9.564 9.523 25.088 0 34.632-9.564 9.605-25.047 9.605-34.652 0.020z" />
<glyph unicode="&#xe91e;" d="M604.57 491.438l98.796 98.796v-53.371c0-14.193 11.039-25.702 24.474-25.743 13.558 0 24.474 11.53 24.474 25.743v109.527c0 0.471-0.082 0.983-0.164 1.393 0.082 0.369 0.123 0.676 0.164 1.024-0.041 13.558-11.674 24.494-26.112 24.494h-111.002c-14.479 0-26.112-10.936-26.112-24.494 0-13.476 11.633-24.453 26.112-24.494h53.084l-98.324-98.304c-9.564-9.523-9.564-25.006 0-34.55 9.564-9.626 25.047-9.626 34.611-0.020z" />
<glyph unicode="&#xe91f;" d="M370.79 624.292h53.084c14.438 0.041 26.112 11.018 26.112 24.494 0 13.558-11.674 24.494-26.112 24.494h-111.002c-14.438 0-26.092-10.936-26.132-24.494 0.041-0.348 0.123-0.655 0.143-1.024-0.020-0.41-0.164-0.881-0.164-1.372l0.020-109.548c0-14.193 10.936-25.723 24.453-25.723 13.476 0.041 24.515 11.53 24.515 25.723v53.35l98.755-98.755c9.605-9.605 25.088-9.605 34.632 0 9.523 9.544 9.523 25.006 0 34.57l-98.304 98.284z" />
<glyph unicode="&#xe920;" glyph-name="subscription" d="M564.966 159.122v70.396h-564.966v-70.68c0-64.009 51.725-116.906 115.741-116.906h506.163c-4.853 4.414-9.534 8.285-13.956 12.716-27.646 27.732-43.112 65.318-42.982 104.474zM400.018 585.88l81.982-56.285 82.302 56.285c22.508 15.353 40.388 49.999 40.388 77.241v116.31l-122.483 60.577-122.483-60.423v-116.465c0-27.233 17.777-61.888 40.294-77.241zM418.474 695.81c6.060 6.001 15.846 5.956 21.844-0.113l24.62-24.863 59.26 59.251c6.034 6.034 15.819 6.034 21.853-0.009 6.034-6.034 6.025-15.819-0.009-21.853l-70.232-70.268c-2.898-2.904-6.819-4.559-10.922-4.577h-0.035c-4.12 0.026-8.060 1.69-10.94 4.639l-35.551 35.913c-5.998 6.078-5.948 15.861 0.113 21.879zM942.113 960h-0.492c-45.389 0-83.138-37.923-83.138-83.337v-141.767h165.517v142.042c0.207 45.5-36.387 82.622-81.887 83.061zM237.173 960c-42.922 0-77.855-34.465-77.855-76.74l-4.559-622.846h425.655c8.664-0.344 15.499-7.492 15.448-16.172v-85.12c-0.154-64.353 51.725-116.725 116.070-117.191h0.388c64.113 0.466 115.708 52.811 115.266 116.921v717.786c0 32.472 14.612 61.292 36.568 83.361h-626.982zM328.828 789.224c-0.199 5.811 2.984 11.215 8.163 13.87l138.346 67.992c4.25 2.103 9.234 2.103 13.482 0l138.595-68.182c5.182-2.655 8.362-8.051 8.172-13.87v-125.914c0-37.473-22.87-81.655-53.844-102.766l-90.759-62.232c-2.542-1.75-5.561-2.69-8.647-2.69-3.079 0-6.078 0.931-8.602 2.69l-91.026 62.232c-30.958 21.12-53.881 65.302-53.881 102.769v126.102zM701.793 331.034h-423.724c-8.534 0-15.448 6.914-15.448 15.448s6.914 15.448 15.448 15.448h423.724c8.534 0 15.448-6.914 15.448-15.448s-6.914-15.448-15.448-15.448zM701.793 412.69h-423.724c-8.534 0-15.448 6.914-15.448 15.448s6.914 15.448 15.448 15.448h423.724c8.534 0 15.448-6.914 15.448-15.448s-6.914-15.448-15.448-15.448z" />
<glyph unicode="&#xe921;" glyph-name="subscription_hover" d="M564.966 159.122v70.396h-564.966v-70.68c0-64.009 51.725-116.906 115.741-116.906h506.163c-4.853 4.414-9.534 8.285-13.956 12.716-27.646 27.732-43.112 65.318-42.982 104.474zM400.018 585.88l81.982-56.285 82.302 56.285c22.508 15.353 40.388 49.999 40.388 77.241v116.31l-122.483 60.577-122.483-60.423v-116.465c0-27.233 17.777-61.888 40.294-77.241zM418.474 695.81c6.060 6.001 15.846 5.956 21.844-0.113l24.62-24.863 59.26 59.251c6.034 6.034 15.819 6.034 21.853-0.009 6.034-6.034 6.025-15.819-0.009-21.853l-70.232-70.268c-2.898-2.904-6.819-4.559-10.922-4.577h-0.035c-4.12 0.026-8.060 1.69-10.94 4.639l-35.551 35.913c-5.998 6.078-5.948 15.861 0.113 21.879zM942.113 960h-0.492c-45.389 0-83.138-37.923-83.138-83.337v-141.767h165.517v142.042c0.207 45.5-36.387 82.622-81.887 83.061zM237.173 960c-42.922 0-77.855-34.465-77.855-76.74l-4.559-622.846h425.655c8.664-0.344 15.499-7.492 15.448-16.172v-85.12c-0.154-64.353 51.725-116.725 116.070-117.191h0.388c64.113 0.466 115.708 52.811 115.266 116.921v717.786c0 32.472 14.612 61.292 36.568 83.361h-626.982zM328.828 789.224c-0.199 5.811 2.984 11.215 8.163 13.87l138.346 67.992c4.25 2.103 9.234 2.103 13.482 0l138.595-68.182c5.182-2.655 8.362-8.051 8.172-13.87v-125.914c0-37.473-22.87-81.655-53.844-102.766l-90.759-62.232c-2.542-1.75-5.561-2.69-8.647-2.69-3.079 0-6.078 0.931-8.602 2.69l-91.026 62.232c-30.958 21.12-53.881 65.302-53.881 102.769v126.102zM701.793 331.034h-423.724c-8.534 0-15.448 6.914-15.448 15.448s6.914 15.448 15.448 15.448h423.724c8.534 0 15.448-6.914 15.448-15.448s-6.914-15.448-15.448-15.448zM701.793 412.69h-423.724c-8.534 0-15.448 6.914-15.448 15.448s6.914 15.448 15.448 15.448h423.724c8.534 0 15.448-6.914 15.448-15.448s-6.914-15.448-15.448-15.448z" />
<glyph unicode="&#xe922;" d="M1024 448c0-282.77-229.23-512-512-512s-512 229.23-512 512c0 282.77 229.23 512 512 512s512-229.23 512-512z" />
<glyph unicode="&#xe923;" d="M725.115 243.2h-426.23c-34.959 0-63.365 28.058-63.365 62.587v284.426c0 34.529 28.406 62.587 63.365 62.587h426.25c34.959 0 63.365-28.058 63.365-62.587v-284.447c-0.020-34.509-28.426-62.566-63.386-62.566zM298.885 618.66c-15.872 0-28.795-12.78-28.795-28.447v-284.447c0-15.688 12.923-28.447 28.795-28.447h426.25c15.872 0 28.795 12.759 28.795 28.447v284.447c0 15.688-12.923 28.447-28.795 28.447h-426.25z" />
<glyph unicode="&#xe924;" d="M408.33 448c-31.744 0-57.61 25.539-57.61 56.893s25.846 56.893 57.61 56.893 57.61-25.539 57.61-56.893-25.866-56.893-57.61-56.893zM408.33 527.647c-12.698 0-23.040-10.22-23.040-22.753s10.342-22.753 23.040-22.753 23.040 10.22 23.040 22.753-10.363 22.753-23.040 22.753z" />
<glyph unicode="&#xe925;" d="M494.715 334.213c-9.544 0-17.285 7.639-17.285 17.060v11.387c0 15.688-12.923 28.467-28.795 28.467h-80.65c-15.872 0-28.795-12.78-28.795-28.467v-11.387c0-9.421-7.741-17.060-17.285-17.060s-17.285 7.639-17.285 17.060v11.387c0 34.529 28.406 62.587 63.365 62.587h80.65c34.959 0 63.365-28.058 63.365-62.587v-11.387c0-9.421-7.741-17.060-17.285-17.060z" />
<glyph unicode="&#xe926;" d="M702.075 516.26h-126.73c-9.544 0-17.285 7.639-17.285 17.060s7.762 17.080 17.306 17.080h126.73c9.544 0 17.285-7.66 17.285-17.060s-7.762-17.080-17.306-17.080z" />
<glyph unicode="&#xe927;" d="M702.075 425.247h-126.73c-9.544 0-17.285 7.66-17.285 17.080s7.741 17.060 17.285 17.060h126.73c9.544 0 17.285-7.639 17.285-17.060s-7.741-17.080-17.285-17.080z" />
<glyph unicode="&#xe928;" d="M702.075 334.213h-126.73c-9.544 0-17.285 7.639-17.285 17.060s7.741 17.080 17.285 17.080h126.73c9.544 0 17.285-7.66 17.285-17.080s-7.741-17.060-17.285-17.060z" />
<glyph unicode="&#xe929;" glyph-name="support_tickets" d="M902.649 447.862c-4.573-22.969-24.942-39.699-49.364-40.738-7.69-0.312-14.237-5.924-15.695-13.51-1.559-7.586 2.287-15.277 9.249-18.498 22.137-10.392 34.504-33.671 29.827-56.639l-4.366-21.824c-5.716-28.787-37.519-46.766-65.368-39.907-7.794 1.871-15.795 3.326-23.694 4.884-11.641 2.286-23.279 4.677-34.919 6.963-15.384 3.118-30.764 6.129-46.142 9.247-18.291 3.637-36.686 7.381-54.976 11.018-20.472 4.157-40.944 8.208-61.419 12.365-21.824 4.365-43.752 8.73-65.576 13.198-22.45 4.469-44.896 9.041-67.24 13.51-22.24 4.469-44.376 8.94-66.616 13.406-21.199 4.261-42.401 8.522-63.601 12.783-19.434 3.845-38.764 7.794-58.198 11.64-16.836 3.326-33.671 6.755-50.403 10.081-13.406 2.702-26.812 5.402-40.323 8.106-9.249 1.871-18.5 3.741-27.748 5.61-4.262 0.833-8.522 1.767-12.783 2.598-0.208 0-0.416 0.106-0.625 0.106 2.286-10.808 1.247-22.344-3.741-33.152-10.497-22.655-34.92-34.503-58.405-29.93-6.963 1.351-14.549-1.247-17.563-7.69l-9.353-20.265c-3.013-6.441 0-13.924 5.509-18.392 1.039-0.833 750.126-346.173 751.37-346.483 6.964-1.351 14.549 1.247 17.563 7.69l9.353 20.265c3.014 6.441 0 13.924-5.507 18.392-18.706 14.863-25.567 41.156-15.069 63.809 10.496 22.655 34.919 34.503 58.404 29.93 6.962-1.351 14.549 1.247 17.561 7.69l9.353 20.265c3.014 6.443 0 13.924-5.507 18.395-18.706 14.861-25.565 41.154-15.069 63.807s34.919 34.503 58.404 29.93c6.964-1.351 14.549 1.247 17.563 7.69l9.353 20.265c3.012 6.443 0 13.926-5.509 18.395-18.706 14.861-25.565 41.154-15.069 63.808 10.498 22.657 34.921 34.502 58.404 29.931 6.964-1.352 14.549 1.246 17.563 7.688l10.286 22.45c3.014 6.442 0.209 14.030-6.235 17.041l-111.925 51.65-1.757-7.58zM10.044 455.033c1.247-0.624 809.881-162.847 811.231-162.847 7.070 0.312 13.926 4.677 15.278 11.536l4.364 21.824c1.352 6.963-3.222 13.614-9.664 16.628-21.617 10.185-34.401 34.087-29.514 58.613 4.883 24.526 25.981 41.674 49.884 42.713 7.066 0.312 13.926 4.677 15.276 11.536l3.222 16.004 1.145 5.924c1.352 6.963-3.224 13.614-9.664 16.628-21.619 10.185-34.401 34.087-29.514 58.611 4.883 24.528 25.981 41.676 49.884 42.715 7.066 0.312 13.926 4.677 15.276 11.536l4.366 21.824c1.35 6.963-3.224 13.615-9.668 16.628-21.615 10.185-34.399 34.087-29.512 58.613 4.885 24.526 25.981 41.674 49.884 42.713 7.068 0.312 13.924 4.677 15.278 11.536l4.881 24.214c1.354 6.963-3.118 13.718-10.078 15.069 0 0-812.584 162.953-813.415 162.953-6.028 0-11.328-4.261-12.575-10.288l-4.884-24.214c-1.351-6.963 3.222-13.614 9.665-16.628 21.616-10.185 34.399-34.087 29.514-58.613s-25.981-41.674-49.884-42.713c-7.068-0.312-13.926-4.677-15.277-11.536l-4.365-21.824c-1.351-6.963 3.222-13.614 9.665-16.628 21.616-10.185 34.4-34.087 29.514-58.613-4.884-24.526-25.981-41.674-49.884-42.713-7.067-0.312-13.926-4.677-15.277-11.536l-4.365-21.824c-1.351-6.962 3.223-13.614 9.665-16.628 21.617-10.185 34.4-34.087 29.514-58.612-4.884-24.528-25.981-41.676-49.884-42.715-7.067-0.312-13.926-4.677-15.277-11.536l-4.365-21.824c-1.456-6.964 3.116-13.511 9.56-16.525zM702.699 721.39c2.807 14.030 16.524 23.175 30.554 20.369s23.176-16.524 20.369-30.554l-34.295-170.643-21.096-105.171c-2.494-12.367-13.303-20.891-25.461-20.891-1.665 0-3.431 0.208-5.092 0.52-14.030 2.806-23.176 16.524-20.369 30.554l23.59 117.33 31.801 158.486zM234.209 815.442c2.806 14.030 16.524 23.175 30.554 20.369s23.175-16.524 20.369-30.554l-11.847-58.925-13.405-66.823-10.808-53.833-19.226-96.234c-2.493-12.367-13.302-20.891-25.461-20.891-1.663 0-3.429 0.208-5.091 0.52-0.727 0.106-1.455 0.314-2.078 0.52-12.887 3.743-20.89 16.734-18.187 30.034l3.844 19.434 10.081 50.298 41.257 206.085z" />
<glyph unicode="&#xe92a;" glyph-name="support_tickets_hover" d="M902.649 447.862c-4.573-22.969-24.942-39.699-49.364-40.738-7.69-0.312-14.237-5.924-15.695-13.51-1.559-7.586 2.287-15.277 9.249-18.498 22.137-10.392 34.504-33.671 29.827-56.639l-4.366-21.824c-5.716-28.787-37.519-46.766-65.368-39.907-7.794 1.871-15.795 3.326-23.694 4.884-11.641 2.286-23.279 4.677-34.919 6.963-15.384 3.118-30.764 6.129-46.142 9.247-18.291 3.637-36.686 7.381-54.976 11.018-20.472 4.157-40.944 8.208-61.419 12.365-21.824 4.365-43.752 8.73-65.576 13.198-22.45 4.469-44.896 9.041-67.24 13.51-22.24 4.469-44.376 8.94-66.616 13.406-21.199 4.261-42.401 8.522-63.601 12.783-19.434 3.845-38.764 7.794-58.198 11.64-16.836 3.326-33.671 6.755-50.403 10.081-13.406 2.702-26.812 5.402-40.323 8.106-9.249 1.871-18.5 3.741-27.748 5.61-4.262 0.833-8.522 1.767-12.783 2.598-0.208 0-0.416 0.106-0.625 0.106 2.286-10.808 1.247-22.344-3.741-33.152-10.497-22.655-34.92-34.503-58.405-29.93-6.963 1.351-14.549-1.247-17.563-7.69l-9.353-20.265c-3.013-6.441 0-13.924 5.509-18.392 1.039-0.833 750.126-346.173 751.37-346.483 6.964-1.351 14.549 1.247 17.563 7.69l9.353 20.265c3.014 6.441 0 13.924-5.507 18.392-18.706 14.863-25.567 41.156-15.069 63.809 10.496 22.655 34.919 34.503 58.404 29.93 6.962-1.351 14.549 1.247 17.561 7.69l9.353 20.265c3.014 6.443 0 13.924-5.507 18.395-18.706 14.861-25.565 41.154-15.069 63.807s34.919 34.503 58.404 29.93c6.964-1.351 14.549 1.247 17.563 7.69l9.353 20.265c3.012 6.443 0 13.926-5.509 18.395-18.706 14.861-25.565 41.154-15.069 63.808 10.498 22.657 34.921 34.502 58.404 29.931 6.964-1.352 14.549 1.246 17.563 7.688l10.286 22.45c3.014 6.442 0.209 14.030-6.235 17.041l-111.925 51.65-1.757-7.58zM10.044 455.033c1.247-0.624 809.881-162.847 811.231-162.847 7.070 0.312 13.926 4.677 15.278 11.536l4.364 21.824c1.352 6.963-3.222 13.614-9.664 16.628-21.617 10.185-34.401 34.087-29.514 58.613 4.883 24.526 25.981 41.674 49.884 42.713 7.066 0.312 13.926 4.677 15.276 11.536l3.222 16.004 1.145 5.924c1.352 6.963-3.224 13.614-9.664 16.628-21.619 10.185-34.401 34.087-29.514 58.611 4.883 24.528 25.981 41.676 49.884 42.715 7.066 0.312 13.926 4.677 15.276 11.536l4.366 21.824c1.35 6.963-3.224 13.615-9.668 16.628-21.615 10.185-34.399 34.087-29.512 58.613 4.885 24.526 25.981 41.674 49.884 42.713 7.068 0.312 13.924 4.677 15.278 11.536l4.881 24.214c1.354 6.963-3.118 13.718-10.078 15.069 0 0-812.584 162.953-813.415 162.953-6.028 0-11.328-4.261-12.575-10.288l-4.884-24.214c-1.351-6.963 3.222-13.614 9.665-16.628 21.616-10.185 34.399-34.087 29.514-58.613s-25.981-41.674-49.884-42.713c-7.068-0.312-13.926-4.677-15.277-11.536l-4.365-21.824c-1.351-6.963 3.222-13.614 9.665-16.628 21.616-10.185 34.4-34.087 29.514-58.613-4.884-24.526-25.981-41.674-49.884-42.713-7.067-0.312-13.926-4.677-15.277-11.536l-4.365-21.824c-1.351-6.962 3.223-13.614 9.665-16.628 21.617-10.185 34.4-34.087 29.514-58.612-4.884-24.528-25.981-41.676-49.884-42.715-7.067-0.312-13.926-4.677-15.277-11.536l-4.365-21.824c-1.456-6.964 3.116-13.511 9.56-16.525zM702.699 721.39c2.807 14.030 16.524 23.175 30.554 20.369s23.176-16.524 20.369-30.554l-34.295-170.643-21.096-105.171c-2.494-12.367-13.303-20.891-25.461-20.891-1.665 0-3.431 0.208-5.092 0.52-14.030 2.806-23.176 16.524-20.369 30.554l23.59 117.33 31.801 158.486zM234.209 815.442c2.806 14.030 16.524 23.175 30.554 20.369s23.175-16.524 20.369-30.554l-11.847-58.925-13.405-66.823-10.808-53.833-19.226-96.234c-2.493-12.367-13.302-20.891-25.461-20.891-1.663 0-3.429 0.208-5.091 0.52-0.727 0.106-1.455 0.314-2.078 0.52-12.887 3.743-20.89 16.734-18.187 30.034l3.844 19.434 10.081 50.298 41.257 206.085z" />
<glyph unicode="&#xe92b;" d="M1024 448c0-282.77-229.23-512-512-512s-512 229.23-512 512c0 282.77 229.23 512 512 512s512-229.23 512-512z" />
<glyph unicode="&#xe92c;" d="M808.96 326.717c0 34.427-10.445 67.666-30.126 96.113-14.131 20.46-32.379 37.458-53.514 50.094 24.883 23.347 40.448 56.32 40.448 92.856 0 70.554-57.958 127.98-129.208 127.98-42.25 0-81.838-20.705-105.861-54.661-6.103 0.881-12.349 1.352-18.698 1.352s-12.595-0.471-18.698-1.352c-24.044 33.956-63.631 54.661-105.861 54.661-71.25 0-129.229-57.405-129.229-127.98 0-36.536 15.565-69.53 40.468-92.856-21.135-12.636-39.383-29.635-53.535-50.094-19.702-28.467-30.106-61.706-30.106-96.113v-71.188h124.559v-53.289h344.801v53.309h124.559v71.168zM636.559 662.18c53.658 0 97.321-43.233 97.321-96.379s-43.663-96.379-97.321-96.379c-0.983 0-1.925 0-2.888 0.041 0.061 0.205 0.123 0.41 0.184 0.614 1.679 4.669 3.052 9.441 4.178 14.356 0.082 0.348 0.164 0.696 0.246 1.044 0.307 1.311 0.512 2.662 0.778 3.994 0.102 0.635 0.246 1.27 0.369 1.905 0.205 1.188 0.369 2.376 0.532 3.584 0.123 0.84 0.225 1.679 0.307 2.519 0.143 1.065 0.266 2.13 0.389 3.195 0.102 1.085 0.164 2.171 0.246 3.277 0.061 0.86 0.143 1.72 0.184 2.58 0.061 1.864 0.143 3.727 0.143 5.571 0 0.143 0 0.266 0 0.43 0 0.061 0 0.143 0 0.225 0 1.905-0.041 3.789-0.143 5.673-0.020 0.553-0.082 1.106-0.102 1.659-0.082 1.597-0.205 3.195-0.369 4.772-0.020 0.369-0.082 0.717-0.102 1.085-4.813 46.121-34.243 85.606-76.698 103.875 18.309 20.296 44.749 32.358 72.745 32.358zM478.31 602.931c0.328 0.102 0.614 0.205 0.942 0.328 0.963 0.348 1.946 0.676 2.929 0.983 0.737 0.246 1.495 0.451 2.232 0.676 0.553 0.164 1.106 0.307 1.638 0.451 0.983 0.287 1.987 0.532 2.99 0.778 7.352 1.761 15.032 2.724 22.938 2.724 7.926 0 15.606-0.963 22.979-2.744 0.983-0.246 1.987-0.492 2.949-0.778 0.553-0.143 1.126-0.307 1.679-0.451 0.737-0.225 1.475-0.451 2.212-0.676 0.983-0.307 1.987-0.655 2.97-0.983 0.307-0.102 0.594-0.205 0.901-0.307 32.563-11.94 56.955-40.612 62.484-75.428 0.020-0.266 0.041-0.553 0.123-0.84 0.184-1.188 0.328-2.376 0.451-3.543 0.041-0.451 0.082-0.881 0.143-1.311 0.082-1.085 0.184-2.191 0.266-3.277 0.020-0.471 0.061-0.942 0.082-1.413 0.082-1.413 0.102-2.826 0.102-4.239 0-0.123 0.020-0.246 0.020-0.369 0-0.061 0-0.102 0-0.164 0-1.372-0.041-2.744-0.123-4.096-0.020-0.43-0.041-0.86-0.061-1.29-0.082-1.29-0.164-2.601-0.307-3.912-0.061-0.492-0.123-1.004-0.164-1.495-0.102-0.84-0.225-1.7-0.348-2.519-0.082-0.635-0.205-1.29-0.307-1.946-0.164-0.983-0.328-1.966-0.492-2.949-0.205-0.86-0.389-1.72-0.553-2.58-0.123-0.512-0.246-1.024-0.389-1.556-0.307-1.29-0.635-2.56-1.024-3.83-0.143-0.512-0.287-1.004-0.43-1.516-0.225-0.717-0.451-1.434-0.676-2.15-0.225-0.573-0.43-1.167-0.614-1.72-0.225-0.655-0.451-1.29-0.676-1.946-0.43-1.085-0.86-2.171-1.29-3.256-0.225-0.471-0.43-0.942-0.635-1.434-0.389-0.901-0.778-1.782-1.208-2.662-0.061-0.102-0.143-0.205-0.164-0.328-0.143-0.307-0.307-0.614-0.43-0.942-0.492-0.942-0.983-1.884-1.475-2.826-0.205-0.369-0.389-0.717-0.573-1.085-0.041-0.020-0.041-0.041-0.061-0.061-0.512-0.983-1.106-1.966-1.679-2.949-0.246-0.389-0.471-0.778-0.717-1.167-0.614-1.024-1.29-2.048-1.966-3.031-0.43-0.614-0.84-1.229-1.29-1.843-0.369-0.532-0.737-1.044-1.106-1.556-0.492-0.655-1.004-1.311-1.516-1.966-0.328-0.43-0.655-0.881-1.024-1.311-0.532-0.676-1.085-1.311-1.638-1.966-0.328-0.41-0.696-0.799-1.044-1.188-0.553-0.655-1.147-1.311-1.741-1.946-0.369-0.389-0.696-0.737-1.085-1.106-0.942-1.004-1.925-1.987-2.949-2.949-0.573-0.573-1.188-1.147-1.782-1.7-0.43-0.369-0.86-0.758-1.29-1.147-0.696-0.614-1.413-1.208-2.13-1.802-0.369-0.307-0.737-0.594-1.106-0.881-0.86-0.717-1.741-1.393-2.621-2.068-0.266-0.184-0.492-0.389-0.737-0.532-16.2-11.94-36.27-19.005-57.938-19.005-21.709 0-41.759 7.066-57.958 19.005-0.246 0.164-0.451 0.369-0.696 0.512-0.901 0.676-1.782 1.372-2.662 2.089-0.369 0.287-0.717 0.573-1.085 0.881-0.717 0.594-1.413 1.208-2.13 1.802-0.43 0.41-0.84 0.778-1.27 1.147-0.614 0.553-1.208 1.126-1.802 1.7-1.004 0.963-2.007 1.946-2.97 2.949-0.369 0.369-0.696 0.717-1.065 1.106-0.573 0.635-1.167 1.29-1.741 1.946-0.348 0.41-0.696 0.799-1.044 1.188-0.553 0.655-1.085 1.29-1.618 1.966-0.369 0.43-0.696 0.881-1.044 1.311-0.512 0.655-1.004 1.29-1.495 1.966-0.389 0.512-0.737 1.024-1.126 1.556-0.43 0.614-0.86 1.229-1.29 1.823-0.676 1.004-1.331 2.028-1.987 3.052-0.246 0.389-0.451 0.758-0.676 1.147-0.594 0.983-1.188 1.987-1.741 2.99-0.225 0.369-0.41 0.758-0.614 1.126-0.492 0.942-1.004 1.884-1.434 2.847-0.184 0.348-0.369 0.696-0.512 1.024-0.020 0.041-0.061 0.102-0.082 0.164-0.43 0.922-0.86 1.843-1.29 2.785-0.184 0.451-0.389 0.901-0.573 1.331-0.451 1.106-0.901 2.212-1.311 3.338-0.225 0.594-0.43 1.229-0.655 1.823-0.225 0.614-0.43 1.249-0.635 1.884-0.225 0.696-0.451 1.372-0.655 2.048-0.328 1.024-0.594 2.048-0.881 3.092-0.205 0.737-0.389 1.475-0.553 2.191-0.143 0.573-0.287 1.167-0.41 1.72-0.164 0.717-0.328 1.413-0.471 2.13-0.205 1.126-0.43 2.232-0.594 3.359-0.102 0.594-0.184 1.208-0.266 1.823-0.143 0.881-0.266 1.802-0.348 2.703-0.061 0.43-0.123 0.901-0.184 1.331-0.123 1.331-0.225 2.662-0.307 4.014-0.020 0.389-0.041 0.778-0.061 1.167-0.061 1.454-0.123 2.888-0.123 4.342 0 1.556 0.061 3.092 0.123 4.649 0.020 0.43 0.061 0.84 0.082 1.249 0.082 1.167 0.164 2.314 0.287 3.461 0.020 0.41 0.082 0.799 0.143 1.208 0.123 1.249 0.287 2.478 0.451 3.707 0.041 0.246 0.061 0.471 0.102 0.717 5.55 34.775 29.962 63.488 62.505 75.428zM290.12 565.78c0 53.146 43.643 96.379 97.321 96.379 27.996 0 54.456-12.063 72.745-32.42-42.455-18.268-71.885-57.774-76.677-103.916-0.041-0.328-0.061-0.614-0.102-0.942-0.143-1.659-0.287-3.297-0.389-4.956-0.020-0.512-0.061-1.004-0.082-1.516-0.102-1.966-0.164-3.953-0.164-5.96 0-2.028 0.061-4.035 0.164-6.021 0.041-0.819 0.102-1.618 0.164-2.437 0.082-1.147 0.164-2.294 0.266-3.441 0.102-1.024 0.225-2.048 0.348-3.052 0.102-0.881 0.225-1.782 0.348-2.662 0.164-1.167 0.348-2.314 0.512-3.461 0.123-0.696 0.266-1.372 0.389-2.048 0.246-1.29 0.471-2.58 0.758-3.85 0.102-0.43 0.205-0.84 0.287-1.249 1.106-4.731 2.458-9.38 4.035-13.926 0.102-0.287 0.205-0.573 0.307-0.86-0.963-0.020-1.925-0.041-2.908-0.041-53.678 0-97.321 43.233-97.321 96.379zM366.346 364.462c-0.369-0.553-0.676-1.106-1.044-1.638-0.717-1.188-1.434-2.355-2.13-3.543-0.41-0.635-0.778-1.311-1.167-1.987-0.614-1.085-1.249-2.191-1.843-3.297-0.389-0.696-0.737-1.372-1.126-2.089-0.573-1.126-1.167-2.212-1.7-3.318-0.369-0.696-0.696-1.413-1.044-2.109-0.553-1.188-1.126-2.335-1.638-3.543-0.307-0.614-0.594-1.27-0.881-1.925-0.614-1.413-1.229-2.847-1.802-4.28-0.164-0.41-0.348-0.819-0.512-1.249-0.737-1.864-1.434-3.727-2.109-5.591-0.164-0.43-0.307-0.881-0.451-1.311-0.492-1.434-0.983-2.908-1.454-4.362-0.205-0.676-0.41-1.331-0.594-2.028-0.389-1.229-0.737-2.458-1.106-3.727-0.205-0.737-0.41-1.475-0.594-2.232-0.307-1.188-0.594-2.396-0.901-3.584-0.184-0.778-0.348-1.536-0.532-2.294-0.266-1.229-0.512-2.458-0.758-3.686-0.164-0.737-0.328-1.454-0.451-2.191-0.246-1.331-0.451-2.703-0.676-4.014-0.102-0.655-0.225-1.27-0.328-1.905-0.287-1.987-0.553-3.953-0.778-5.939 0-0.020 0-0.041-0.020-0.061-0.205-1.823-0.389-3.645-0.512-5.448h-93.245v39.588c0 54.108 31.396 102.687 80.609 125.747 17.92-9.339 38.298-14.643 59.924-14.643 6.246 0 12.513 0.451 18.739 1.372 0.963-1.372 1.946-2.724 2.97-4.055 0.369-0.43 0.717-0.881 1.065-1.331 1.004-1.27 2.028-2.519 3.072-3.768 0.43-0.512 0.881-1.004 1.311-1.495 0.983-1.147 2.007-2.232 3.011-3.338 0.532-0.553 1.085-1.126 1.638-1.679 0.942-0.963 1.884-1.925 2.867-2.847 0.369-0.348 0.696-0.717 1.085-1.065-1.393-0.819-2.765-1.7-4.116-2.54-0.246-0.164-0.43-0.328-0.655-0.43-1.372-0.881-2.724-1.782-4.035-2.683-0.451-0.328-0.922-0.614-1.372-0.963-1.208-0.819-2.376-1.659-3.543-2.519-0.369-0.287-0.737-0.532-1.106-0.799-1.475-1.147-2.97-2.253-4.403-3.42-0.307-0.246-0.614-0.492-0.942-0.758-1.147-0.942-2.273-1.884-3.42-2.867-0.43-0.369-0.86-0.717-1.29-1.126-1.126-0.983-2.232-1.966-3.338-2.99-0.287-0.287-0.573-0.532-0.86-0.799-1.352-1.27-2.683-2.54-3.994-3.85-0.348-0.328-0.655-0.676-1.024-1.024-1.004-1.024-2.007-2.048-2.99-3.072-0.389-0.41-0.758-0.819-1.167-1.249-1.106-1.188-2.171-2.417-3.256-3.625-0.164-0.205-0.348-0.389-0.492-0.573-1.229-1.413-2.417-2.867-3.604-4.301-0.328-0.43-0.635-0.799-0.963-1.229-0.901-1.147-1.761-2.232-2.621-3.379-0.348-0.43-0.655-0.86-1.004-1.311-1.106-1.516-2.212-3.031-3.297-4.628-1.208-1.618-2.335-3.297-3.4-4.997zM371.487 233.82v39.608c0 1.741 0.041 3.523 0.102 5.243 0.020 0.553 0.082 1.147 0.102 1.72 0.061 1.167 0.123 2.314 0.205 3.482 0.061 0.696 0.143 1.393 0.205 2.109 0.082 1.024 0.164 2.048 0.287 3.052 0.102 0.717 0.205 1.475 0.307 2.212 0.123 0.963 0.246 1.946 0.389 2.888 0.123 0.778 0.266 1.516 0.389 2.273 0.164 0.942 0.307 1.864 0.492 2.806 0.123 0.758 0.307 1.516 0.451 2.314 0.184 0.881 0.369 1.782 0.573 2.662 0.164 0.778 0.369 1.536 0.553 2.335 0.225 0.881 0.43 1.741 0.655 2.621 0.205 0.758 0.43 1.556 0.655 2.335 0.246 0.84 0.471 1.7 0.737 2.519 0.246 0.778 0.512 1.577 0.758 2.335 0.266 0.84 0.512 1.659 0.819 2.478 0.266 0.778 0.553 1.536 0.84 2.294 0.307 0.84 0.594 1.638 0.901 2.437 0.328 0.758 0.614 1.516 0.942 2.294 0.348 0.778 0.635 1.577 0.983 2.355 0.348 0.758 0.676 1.516 1.024 2.253 0.389 0.778 0.717 1.556 1.085 2.314s0.737 1.516 1.106 2.232c0.389 0.778 0.758 1.516 1.167 2.273 0.389 0.737 0.778 1.454 1.208 2.171 0.389 0.758 0.778 1.495 1.208 2.212 0.43 0.737 0.86 1.434 1.29 2.15s0.86 1.454 1.29 2.171c0.43 0.696 0.901 1.393 1.352 2.13 0.43 0.696 0.901 1.393 1.352 2.13 0.471 0.655 0.963 1.352 1.434 2.068 0.471 0.676 0.963 1.372 1.434 2.068 0.492 0.655 1.024 1.331 1.516 2.028 0.512 0.655 1.004 1.331 1.536 2.007 0.492 0.635 1.044 1.29 1.556 1.987 0.532 0.635 1.065 1.29 1.597 1.946 0.532 0.635 1.106 1.27 1.659 1.905s1.106 1.27 1.679 1.905c0.553 0.614 1.147 1.249 1.72 1.843 0.573 0.614 1.147 1.249 1.741 1.843 0.573 0.594 1.188 1.229 1.802 1.802 0.573 0.594 1.208 1.188 1.802 1.782 0.614 0.573 1.249 1.167 1.864 1.741 0.614 0.553 1.27 1.147 1.905 1.7 0.614 0.532 1.29 1.106 1.925 1.659s1.29 1.106 1.966 1.659c0.635 0.532 1.311 1.085 1.987 1.577 0.655 0.553 1.331 1.085 2.028 1.597 0.676 0.492 1.352 1.024 2.048 1.516 0.696 0.532 1.393 1.024 2.109 1.516 0.696 0.512 1.393 1.004 2.109 1.454 0.717 0.492 1.434 0.983 2.171 1.454 0.696 0.451 1.413 0.922 2.13 1.372 0.737 0.451 1.495 0.942 2.232 1.372s1.454 0.881 2.191 1.311c0.778 0.43 1.536 0.86 2.314 1.29 0.737 0.43 1.495 0.84 2.232 1.208 0.799 0.43 1.577 0.84 2.376 1.27 0.758 0.41 1.536 0.758 2.294 1.147 0.594 0.287 1.229 0.573 1.823 0.86 17.9-9.298 38.277-14.602 59.904-14.602 21.606 0 41.984 5.304 59.904 14.643 0.594-0.287 1.208-0.553 1.823-0.86 0.778-0.389 1.536-0.737 2.314-1.147 0.778-0.43 1.577-0.819 2.355-1.249 0.758-0.389 1.495-0.799 2.273-1.249 0.758-0.43 1.516-0.86 2.253-1.29s1.495-0.881 2.232-1.311c0.737-0.451 1.475-0.901 2.212-1.372 0.717-0.451 1.434-0.922 2.15-1.372 0.717-0.471 1.434-0.963 2.15-1.454 0.717-0.451 1.413-0.963 2.109-1.454s1.393-0.983 2.109-1.495c0.676-0.512 1.352-1.044 2.068-1.536 0.655-0.512 1.331-1.044 2.007-1.577 0.655-0.512 1.331-1.065 1.966-1.597 0.696-0.553 1.331-1.085 1.987-1.638 0.635-0.573 1.29-1.147 1.946-1.679 0.614-0.553 1.27-1.147 1.864-1.7 0.635-0.573 1.29-1.167 1.884-1.761 0.594-0.573 1.208-1.167 1.802-1.761 0.614-0.573 1.229-1.188 1.823-1.802 0.573-0.594 1.147-1.208 1.72-1.823s1.167-1.249 1.741-1.864c0.553-0.614 1.106-1.27 1.659-1.884 0.553-0.655 1.126-1.29 1.659-1.925 0.532-0.655 1.065-1.29 1.597-1.946 0.512-0.676 1.044-1.311 1.597-1.987 0.492-0.655 1.004-1.331 1.475-2.007 0.532-0.655 1.044-1.352 1.516-2.028 0.492-0.676 0.983-1.372 1.434-2.048 0.492-0.717 0.983-1.413 1.434-2.089 0.471-0.717 0.942-1.413 1.372-2.13s0.922-1.413 1.352-2.13c0.43-0.717 0.86-1.434 1.29-2.15s0.86-1.413 1.29-2.171c0.43-0.717 0.819-1.434 1.208-2.191 0.43-0.717 0.819-1.454 1.229-2.191 0.389-0.758 0.758-1.495 1.126-2.273 0.389-0.717 0.778-1.475 1.126-2.232 0.389-0.758 0.717-1.516 1.065-2.294 0.369-0.758 0.696-1.516 1.044-2.273 0.348-0.778 0.635-1.577 0.963-2.355 0.328-0.758 0.655-1.536 0.963-2.294 0.287-0.799 0.594-1.597 0.901-2.417 0.287-0.778 0.573-1.536 0.84-2.314 0.307-0.819 0.532-1.659 0.84-2.478 0.246-0.758 0.492-1.556 0.737-2.335 0.287-0.819 0.492-1.679 0.737-2.519 0.225-0.799 0.451-1.577 0.655-2.335 0.246-0.881 0.43-1.741 0.655-2.621 0.184-0.778 0.41-1.556 0.573-2.335 0.205-0.881 0.369-1.782 0.532-2.662 0.184-0.799 0.348-1.556 0.492-2.314 0.164-0.942 0.328-1.843 0.451-2.785 0.143-0.758 0.287-1.516 0.41-2.294 0.143-0.942 0.266-1.925 0.41-2.867 0.082-0.758 0.205-1.495 0.266-2.232 0.123-1.024 0.225-2.028 0.328-3.052 0.041-0.696 0.143-1.393 0.184-2.109 0.102-1.167 0.143-2.314 0.205-3.482 0.041-0.573 0.082-1.167 0.102-1.7 0.082-1.741 0.102-3.523 0.102-5.263v-39.608h-281.027zM683.848 287.15c-0.328 3.85-0.758 7.66-1.331 11.469-0.082 0.594-0.205 1.188-0.287 1.802-0.246 1.352-0.451 2.744-0.717 4.116-0.143 0.717-0.287 1.413-0.43 2.13-0.266 1.249-0.532 2.499-0.799 3.748-0.184 0.758-0.348 1.475-0.512 2.232-0.307 1.229-0.594 2.437-0.942 3.645-0.184 0.737-0.369 1.475-0.573 2.191-0.348 1.29-0.717 2.519-1.085 3.768-0.225 0.676-0.41 1.331-0.594 1.987-0.492 1.495-0.983 2.99-1.495 4.444-0.143 0.43-0.266 0.84-0.41 1.27-0.676 1.884-1.393 3.748-2.13 5.612-0.184 0.41-0.328 0.778-0.492 1.188-0.573 1.454-1.188 2.908-1.843 4.321-0.266 0.655-0.532 1.29-0.84 1.905-0.532 1.208-1.106 2.376-1.638 3.584-0.369 0.676-0.696 1.372-1.024 2.068-0.573 1.126-1.147 2.212-1.72 3.338-0.389 0.696-0.737 1.372-1.126 2.089-0.594 1.106-1.229 2.212-1.884 3.297-0.389 0.676-0.737 1.331-1.147 1.987-0.696 1.208-1.413 2.355-2.15 3.543-0.328 0.532-0.655 1.085-1.024 1.638-1.085 1.7-2.191 3.379-3.359 5.038-1.065 1.577-2.171 3.092-3.297 4.628-0.348 0.451-0.655 0.881-1.004 1.29-0.84 1.167-1.741 2.253-2.621 3.4-0.328 0.43-0.635 0.799-0.963 1.229-1.167 1.434-2.376 2.908-3.604 4.301-0.164 0.184-0.328 0.369-0.471 0.532-1.085 1.249-2.15 2.478-3.277 3.666-0.41 0.43-0.758 0.84-1.167 1.249-0.983 1.044-2.007 2.089-2.99 3.092-0.328 0.348-0.655 0.676-1.004 1.004-1.311 1.311-2.642 2.601-3.994 3.871-0.287 0.246-0.553 0.492-0.84 0.737-1.126 1.065-2.232 2.028-3.359 3.011-0.43 0.41-0.86 0.758-1.29 1.126-1.147 0.983-2.273 1.925-3.441 2.867-0.307 0.266-0.594 0.512-0.922 0.758-1.434 1.167-2.908 2.273-4.383 3.4-0.389 0.287-0.758 0.532-1.126 0.819-1.167 0.86-2.335 1.679-3.523 2.519-0.471 0.328-0.942 0.635-1.393 0.963-1.311 0.901-2.642 1.782-3.994 2.662-0.225 0.143-0.451 0.307-0.676 0.451-1.372 0.84-2.744 1.7-4.137 2.519 0.389 0.348 0.696 0.696 1.044 1.044 1.004 0.963 1.987 1.925 2.929 2.888 0.532 0.553 1.085 1.126 1.618 1.659 1.044 1.106 2.048 2.212 3.052 3.379 0.43 0.471 0.84 0.963 1.27 1.434 1.085 1.29 2.13 2.56 3.133 3.85 0.328 0.43 0.676 0.86 1.004 1.29 1.024 1.311 2.028 2.683 2.99 4.076 6.205-0.901 12.472-1.372 18.739-1.372 21.606 0 41.964 5.304 59.904 14.643 49.193-23.081 80.609-71.639 80.609-125.747v-39.588h-93.266z" />
<glyph unicode="&#xe92d;" glyph-name="vpn_instances" horiz-adv-x="1820" d="M1285.802 823.733c-249.726 0-361.392 129.165-362.469 130.429-6.487 7.784-19.735 7.784-26.222 0-1.092-1.298-111.598-130.429-362.469-130.429-9.423 0-17.071-7.648-17.071-17.071v-325.815c0-178.111 80.066-347.377 214.183-452.761 54.066-42.491 112.468-73.238 173.603-91.368 1.588-0.478 3.227-0.717 4.866-0.717s3.261 0.239 4.866 0.717c61.135 18.149 119.536 48.877 173.603 91.368 134.116 105.401 214.183 274.651 214.183 452.761v325.814c-0.002 9.424-7.65 17.072-17.073 17.072zM1268.729 480.847c0-167.713-75.184-326.941-201.14-425.924-49.217-38.685-102.141-66.921-157.368-84.010-55.228 17.071-108.15 45.325-157.368 84.010-125.956 98.965-201.14 258.211-201.14 425.924v308.93c208.995 4.644 322.061 93.844 358.509 128.807 36.448-34.98 149.514-124.163 358.507-128.807v-308.93zM900.628 823.665c-51.471-34.98-139.358-80.050-265.705-96.166-8.535-1.092-14.92-8.347-14.92-16.935v-229.735c0-146.936 65.436-286.089 175.054-372.233 34.519-27.127 71.172-48.398 108.936-63.217 2.015-0.785 4.115-1.178 6.231-1.178s4.233 0.393 6.231 1.178c37.729 14.802 74.398 36.073 108.952 63.217 109.601 86.144 175.037 225.297 175.037 372.233v229.735c0 8.587-6.385 15.843-14.92 16.935-126.349 16.116-214.234 61.186-265.705 96.166-5.787 3.943-13.403 3.943-19.19 0zM995.581 533.513c0-23.44-9.817-45.804-26.701-61.817l43.26-173.040c1.281-5.104 0.119-10.499-3.107-14.647s-8.195-6.573-13.452-6.573h-170.718c-5.257 0-10.226 2.424-13.452 6.573s-4.388 9.543-3.107 14.647l43.26 173.040c-16.885 16.014-26.701 38.378-26.701 61.817 0 47.067 38.293 85.358 85.359 85.358s85.359-38.291 85.359-85.358z" />
<glyph unicode="&#xe92e;" glyph-name="vpn_instances_hover" horiz-adv-x="1820" d="M1285.802 823.733c-249.726 0-361.392 129.165-362.469 130.429-6.487 7.784-19.735 7.784-26.222 0-1.092-1.298-111.598-130.429-362.469-130.429-9.423 0-17.071-7.648-17.071-17.071v-325.815c0-178.111 80.066-347.377 214.183-452.761 54.066-42.491 112.468-73.238 173.603-91.368 1.588-0.478 3.227-0.717 4.866-0.717s3.261 0.239 4.866 0.717c61.135 18.149 119.536 48.877 173.603 91.368 134.116 105.401 214.183 274.651 214.183 452.761v325.814c-0.002 9.424-7.65 17.072-17.073 17.072zM1268.729 480.847c0-167.713-75.184-326.941-201.14-425.924-49.217-38.685-102.141-66.921-157.368-84.010-55.228 17.071-108.15 45.325-157.368 84.010-125.956 98.965-201.14 258.211-201.14 425.924v308.93c208.995 4.644 322.061 93.844 358.509 128.807 36.448-34.98 149.514-124.163 358.507-128.807v-308.93zM900.628 823.665c-51.471-34.98-139.358-80.050-265.705-96.166-8.535-1.092-14.92-8.347-14.92-16.935v-229.735c0-146.936 65.436-286.089 175.054-372.233 34.519-27.127 71.172-48.398 108.936-63.217 2.015-0.785 4.115-1.178 6.231-1.178s4.233 0.393 6.231 1.178c37.729 14.802 74.398 36.073 108.952 63.217 109.601 86.144 175.037 225.297 175.037 372.233v229.735c0 8.587-6.385 15.843-14.92 16.935-126.349 16.116-214.234 61.186-265.705 96.166-5.787 3.943-13.403 3.943-19.19 0zM995.581 533.513c0-23.44-9.817-45.804-26.701-61.817l43.26-173.040c1.281-5.104 0.119-10.499-3.107-14.647s-8.195-6.573-13.452-6.573h-170.718c-5.257 0-10.226 2.424-13.452 6.573s-4.388 9.543-3.107 14.647l43.26 173.040c-16.885 16.014-26.701 38.378-26.701 61.817 0 47.067 38.293 85.358 85.359 85.358s85.359-38.291 85.359-85.358z" />
</font>
</defs>
</svg>
